<?xml version="1.0" encoding="UTF-8"?><svg id="uuid-d3627e36-15dc-4822-a813-903d8fccf703" xmlns="http://www.w3.org/2000/svg" viewBox="0 0 816.37 200"><g><path d="m199.03,140.04l-59,59c-.61.61-1.45.96-2.32.96H13.11C5.87,200,0,194.13,0,186.89V62.28c0-.87.35-1.7.96-2.32l23.86-23.86,7.96-7.95L59.96.97c2.06-2.06,5.6-.6,5.6,2.32v131.16h131.16c2.92,0,4.38,3.53,2.32,5.6Z" fill="#3f56a6"/><path d="m163.9,42.66v59h-29.5c-1.81,0-3.28-1.47-3.28-3.28v-29.5h-29.5c-1.81,0-3.28-1.47-3.28-3.28v-26.22c0-1.81,1.47-3.28,3.28-3.28h55.73c3.62,0,6.56,2.94,6.56,6.56Z" fill="#faa71a"/></g><rect x="297.04" y="41.32" width="35.12" height="123.51" fill="#3f56a6"/><polygon points="348.14 70.79 379.1 70.79 379.1 164.83 414.22 164.83 414.22 70.79 445.18 70.79 445.18 41.32 348.14 41.32 348.14 70.79" fill="#3f56a6"/><polygon points="533.9 87.1 496.28 87.1 496.28 41.32 461.16 41.32 461.16 164.83 496.28 164.83 496.28 116.73 533.9 116.73 533.9 164.83 569.02 164.83 569.02 41.32 533.9 41.32 533.9 87.1" fill="#3f56a6"/><path d="m654.41,118.46c0,5.33-1.31,9.39-3.9,12.08-2.59,2.69-6.1,4-10.75,4s-7.88-1.31-10.52-4.02c-2.66-2.72-3.96-6.67-3.96-12.06v-53.17h-34.96v57.11c0,6.52.93,12.44,2.77,17.61,1.86,5.24,4.56,9.79,8.02,13.52,3.49,3.76,7.74,6.65,12.61,8.58,4.81,1.91,10.15,2.87,15.88,2.87,6.83,0,12.95-1.37,18.18-4.08,2.42-1.25,4.63-2.69,6.63-4.29v8.2h35.12v-99.54h-35.12v53.17Z" fill="#3f56a6"/><path d="m813,94.43c-2.25-6.12-5.39-11.41-9.32-15.71-3.96-4.33-8.71-7.72-14.12-10.06-5.39-2.34-11.27-3.52-17.47-3.52-7.2,0-13.59,1.51-19,4.49-2.33,1.28-4.43,2.73-6.3,4.34v-38.96h-35.12v129.83h35.12v-8.28c1.83,1.52,3.89,2.9,6.16,4.12,5.3,2.87,11.74,4.32,19.15,4.32,6.09,0,11.92-1.19,17.3-3.52,5.4-2.34,10.17-5.75,14.2-10.14,3.99-4.36,7.16-9.71,9.41-15.89,2.23-6.14,3.36-13.05,3.36-20.55s-1.13-14.39-3.37-20.47Zm-33.67,28.55c-.94,2.31-2.21,4.28-3.77,5.85-1.57,1.57-3.33,2.72-5.4,3.5-2.1.8-4.31,1.21-6.56,1.21s-4.41-.4-6.45-1.2c-2.01-.78-3.81-1.94-5.37-3.47-1.55-1.51-2.8-3.44-3.73-5.74-.94-2.32-1.42-5.04-1.42-8.07s.48-5.75,1.42-8.07c.93-2.3,2.19-4.23,3.73-5.74,1.56-1.52,3.36-2.69,5.37-3.47,2.05-.79,4.22-1.2,6.45-1.2s4.45.41,6.56,1.21c2.07.79,3.91,1.93,5.47,3.41,1.53,1.45,2.77,3.35,3.7,5.63.94,2.33,1.42,5.05,1.42,8.07s-.48,5.74-1.42,8.07Z" fill="#3f56a6"/></svg>